<mxfile host="app.diagrams.net" modified="2023-03-09T23:39:40.991Z" agent="5.0 (X11)" etag="cEhA9urN6amJLZEg4yib" version="21.0.6" type="github">
  <diagram name="Page-1" id="DWUzxlG5vfoJLMyDzX3v">
    <mxGraphModel dx="2206" dy="2323" grid="1" gridSize="10" guides="1" tooltips="1" connect="1" arrows="1" fold="1" page="1" pageScale="1" pageWidth="850" pageHeight="1100" math="0" shadow="0">
      <root>
        <mxCell id="0" />
        <mxCell id="1" parent="0" />
        <mxCell id="2" value="Quiz Generator Service" style="whiteSpace=wrap;strokeWidth=2;" parent="1" vertex="1">
          <mxGeometry x="1067.912498474121" width="182.21665954589844" height="34" as="geometry" />
        </mxCell>
        <mxCell id="3" value="Features" style="rhombus;strokeWidth=2;whiteSpace=wrap;direction=south;" parent="1" vertex="1">
          <mxGeometry x="806.9941618347168" y="-39.07666946411134" width="112.1500015258789" height="112.1500015258789" as="geometry" />
        </mxCell>
        <mxCell id="4" value="User Interface" style="rhombus;strokeWidth=2;whiteSpace=wrap;" parent="1" vertex="1">
          <mxGeometry x="1084.2624969482422" y="84" width="149.51666259765625" height="149.51666259765625" as="geometry" />
        </mxCell>
        <mxCell id="5" value="Database" style="rhombus;strokeWidth=2;whiteSpace=wrap;direction=north;" parent="1" vertex="1">
          <mxGeometry x="1401.0499923706057" y="-40.41166870117188" width="117.5" height="117.5" as="geometry" />
        </mxCell>
        <mxCell id="6" value="Multiple Choice Questions" style="whiteSpace=wrap;strokeWidth=2;" parent="1" vertex="1">
          <mxGeometry x="762.63" y="-124.00333740234373" width="200.88333129882812" height="34" as="geometry" />
        </mxCell>
        <mxCell id="7" value="True/False Questions" style="whiteSpace=wrap;strokeWidth=2;" parent="1" vertex="1">
          <mxGeometry x="595.2433312988281" y="-73.07333740234372" width="167.38333129882812" height="34" as="geometry" />
        </mxCell>
        <mxCell id="8" value="Fill-in-the-Blank Questions" style="whiteSpace=wrap;strokeWidth=2;" parent="1" vertex="1">
          <mxGeometry x="577.6166625976563" y="73.07666259765627" width="202.63333129882812" height="34" as="geometry" />
        </mxCell>
        <mxCell id="9" value="Matching Questions" style="whiteSpace=wrap;strokeWidth=2;" parent="1" vertex="1">
          <mxGeometry x="784.8499938964844" y="121.9966625976563" width="156.43333435058594" height="34" as="geometry" />
        </mxCell>
        <mxCell id="10" value="Easy to use web interface" style="whiteSpace=wrap;strokeWidth=2;" parent="1" vertex="1">
          <mxGeometry x="927.3333282470703" y="283.51666259765625" width="198.25" height="34" as="geometry" />
        </mxCell>
        <mxCell id="11" value="Accessible on multiple devices" style="whiteSpace=wrap;strokeWidth=2;" parent="1" vertex="1">
          <mxGeometry x="1175.5833282470703" y="283.51666259765625" width="232" height="34" as="geometry" />
        </mxCell>
        <mxCell id="12" value="Database of questions" style="whiteSpace=wrap;strokeWidth=2;flipH=1;flipV=0;direction=east;" parent="1" vertex="1">
          <mxGeometry x="1374.8000000000002" y="124.00000000000001" width="170" height="30" as="geometry" />
        </mxCell>
        <mxCell id="13" value="Ability to import questions" style="whiteSpace=wrap;strokeWidth=2;flipH=1;flipV=0;direction=east;" parent="1" vertex="1">
          <mxGeometry x="1609.88" y="4" width="200" height="30" as="geometry" />
        </mxCell>
        <mxCell id="14" value="Database management tools" style="whiteSpace=wrap;strokeWidth=2;flipH=1;flipV=0;direction=west;" parent="1" vertex="1">
          <mxGeometry x="1349.9966564941406" y="-124.00333740234373" width="219.61666870117188" height="34" as="geometry" />
        </mxCell>
        <mxCell id="15" value="" style="curved=1;startArrow=none;endArrow=block;exitX=0;exitY=0.5;entryX=0.5;entryY=0;exitDx=0;exitDy=0;" parent="1" source="2" target="3" edge="1">
          <mxGeometry relative="1" as="geometry" />
        </mxCell>
        <mxCell id="16" value="" style="curved=1;startArrow=none;endArrow=block;exitX=0.5;exitY=1;entryX=0.5;entryY=0;" parent="1" source="2" target="4" edge="1">
          <mxGeometry relative="1" as="geometry">
            <Array as="points" />
          </mxGeometry>
        </mxCell>
        <mxCell id="17" value="" style="curved=1;startArrow=none;endArrow=block;exitX=1;exitY=0.5;entryX=0.5;entryY=0;entryDx=0;entryDy=0;exitDx=0;exitDy=0;" parent="1" source="2" target="5" edge="1">
          <mxGeometry relative="1" as="geometry">
            <mxPoint x="1730" y="30" as="targetPoint" />
          </mxGeometry>
        </mxCell>
        <mxCell id="18" value="" style="curved=1;startArrow=none;endArrow=block;exitX=0;exitY=0.5;entryX=0.5;entryY=1;exitDx=0;exitDy=0;entryDx=0;entryDy=0;" parent="1" source="3" target="6" edge="1">
          <mxGeometry relative="1" as="geometry" />
        </mxCell>
        <mxCell id="19" value="" style="curved=1;startArrow=none;endArrow=block;exitX=0;exitY=0.9244884883335434;entryX=1;entryY=1;entryDx=0;entryDy=0;" parent="1" source="3" target="7" edge="1">
          <mxGeometry relative="1" as="geometry">
            <mxPoint x="758.99" y="-60" as="targetPoint" />
          </mxGeometry>
        </mxCell>
        <mxCell id="20" value="" style="curved=1;startArrow=none;endArrow=block;exitX=1;exitY=1;entryX=1;entryY=0;entryDx=0;entryDy=0;exitDx=0;exitDy=0;" parent="1" source="3" target="8" edge="1">
          <mxGeometry relative="1" as="geometry" />
        </mxCell>
        <mxCell id="21" value="" style="curved=1;startArrow=none;endArrow=block;exitX=1;exitY=0.5;entryX=0.5;entryY=0;exitDx=0;exitDy=0;" parent="1" source="3" target="9" edge="1">
          <mxGeometry relative="1" as="geometry" />
        </mxCell>
        <mxCell id="22" value="" style="curved=1;startArrow=none;endArrow=block;exitX=0;exitY=0.8762690478032178;entryX=0.5;entryY=0;" parent="1" source="4" target="10" edge="1">
          <mxGeometry relative="1" as="geometry">
            <Array as="points">
              <mxPoint x="1026.4583282470703" y="258.51666259765625" />
            </Array>
          </mxGeometry>
        </mxCell>
        <mxCell id="23" value="" style="curved=1;startArrow=none;endArrow=block;exitX=1;exitY=0.8762690478032178;entryX=0.5;entryY=0;" parent="1" source="4" target="11" edge="1">
          <mxGeometry relative="1" as="geometry">
            <Array as="points">
              <mxPoint x="1291.5833282470703" y="258.51666259765625" />
            </Array>
          </mxGeometry>
        </mxCell>
        <mxCell id="24" value="" style="curved=1;startArrow=none;endArrow=block;exitX=0.5;exitY=0;entryX=0;entryY=0.5;exitDx=0;exitDy=0;entryDx=0;entryDy=0;" parent="1" source="12" target="5" edge="1">
          <mxGeometry relative="1" as="geometry" />
        </mxCell>
        <mxCell id="25" value="" style="curved=1;startArrow=none;endArrow=block;exitX=0;exitY=0.5;entryX=0.5;entryY=1;exitDx=0;exitDy=0;entryDx=0;entryDy=0;" parent="1" source="13" target="5" edge="1">
          <mxGeometry relative="1" as="geometry" />
        </mxCell>
        <mxCell id="26" value="" style="curved=1;startArrow=none;endArrow=block;exitX=0.5;exitY=0;entryX=1;entryY=0.5;exitDx=0;exitDy=0;entryDx=0;entryDy=0;" parent="1" source="14" target="5" edge="1">
          <mxGeometry relative="1" as="geometry" />
        </mxCell>
      </root>
    </mxGraphModel>
  </diagram>
</mxfile>
